<svg width="951" height="57" viewBox="0 0 951 57" fill="none" xmlns="http://www.w3.org/2000/svg">
<path d="M644.037 28.1597C644.531 43.2856 670.009 46.9046 681.204 36.7341C681.912 36.1031 682.818 35.7876 683.922 35.7876H712.465C713.832 35.7876 714.285 36.264 713.824 37.2167C704.483 56.5369 675.372 58.4671 650.956 56.2956C625.058 53.9757 608.476 41.6523 614.703 20.6989C618.509 7.85588 634.72 1.99114 651.104 0.59919C672.95 -1.25674 706.188 0.190882 713.725 19.7338C714.054 20.5752 713.634 20.9959 712.465 20.9959L683.576 21.0144C682.637 21.0144 681.879 20.736 681.303 20.1792C671.764 10.9738 643.518 13.1082 644.037 28.1597Z" fill="#38B6FF"/>
<path d="M37.5697 47.2074L31.2802 55.4375C31.2138 55.5268 31.1166 55.6013 30.9986 55.6533C30.8806 55.7053 30.7461 55.733 30.609 55.7334L1.22466 55.7149C1.0855 55.7151 0.94885 55.6874 0.829205 55.6345C0.709561 55.5816 0.611393 55.5056 0.545115 55.4146C0.478838 55.3236 0.446923 55.2209 0.452767 55.1175C0.458611 55.0141 0.501995 54.9137 0.578307 54.8272L46.4446 1.52565C46.5149 1.4459 46.6109 1.38046 46.7237 1.33524C46.8366 1.29003 46.9628 1.26649 47.091 1.26673H74.6605C74.7887 1.26649 74.9149 1.29003 75.0278 1.33524C75.1407 1.38046 75.2366 1.4459 75.3069 1.52565L121.223 54.8456C121.299 54.9322 121.343 55.0325 121.348 55.136C121.354 55.2394 121.322 55.3421 121.256 55.4331C121.19 55.5242 121.092 55.6002 120.972 55.653C120.852 55.7059 120.716 55.7337 120.577 55.7334H91.1426C91.0054 55.733 90.8709 55.7053 90.7529 55.6533C90.6349 55.6013 90.5377 55.5268 90.4714 55.4375L84.2316 47.2074C84.1652 47.1181 84.068 47.0436 83.95 46.9916C83.832 46.9395 83.6975 46.9119 83.5603 46.9115H38.2409C38.1038 46.9119 37.9692 46.9395 37.8512 46.9916C37.7333 47.0436 37.6361 47.1181 37.5697 47.2074ZM72.2243 33.3919C72.3581 33.3915 72.4894 33.3652 72.6054 33.3155C72.7213 33.2659 72.818 33.1946 72.8857 33.1088C72.9534 33.0229 72.9899 32.9254 72.9916 32.8259C72.9934 32.7264 72.9602 32.6283 72.8955 32.5411L61.5345 17.8379C61.4658 17.7537 61.3691 17.6841 61.2537 17.6358C61.1383 17.5875 61.0082 17.5621 60.8758 17.5621C60.7433 17.5621 60.6132 17.5875 60.4978 17.6358C60.3824 17.6841 60.2857 17.7537 60.217 17.8379L48.8809 32.4671C48.8162 32.5543 48.783 32.6524 48.7847 32.752C48.7865 32.8515 48.823 32.949 48.8907 33.0348C48.9584 33.1207 49.055 33.1919 49.171 33.2415C49.287 33.2912 49.4183 33.3175 49.5521 33.3179L72.2243 33.3919Z" fill="#38B6FF"/>
<path d="M160.225 1.26672H131.508C131.034 1.26672 130.649 1.55645 130.649 1.91383V55.0863C130.649 55.4437 131.034 55.7334 131.508 55.7334H160.225C160.7 55.7334 161.085 55.4437 161.085 55.0863V1.91383C161.085 1.55645 160.7 1.26672 160.225 1.26672Z" fill="#38B6FF"/>
<path d="M264.347 35.7434C262.894 36.2607 262.902 36.7595 264.371 37.2399C274.154 40.473 274.005 47.9369 276.283 54.5879C276.548 55.3516 276.143 55.7334 275.07 55.7334L248.918 55.7149C247.861 55.7149 247.143 55.3516 246.763 54.6249C243.346 47.9923 243.172 40.5839 230.591 40.2328C223.442 40.0234 216.294 39.9618 209.145 40.0481C208.319 40.0604 207.906 40.3745 207.906 40.9903V54.8836C207.906 55.1089 207.786 55.3251 207.573 55.4845C207.359 55.6438 207.069 55.7334 206.767 55.7334H178.386C177.561 55.7334 177.148 55.4255 177.148 54.8096L177.173 2.50679C177.173 1.75547 177.676 1.37366 178.683 1.36134C197.389 1.20123 216.434 1.24432 235.817 1.49065C247.919 1.63845 258.04 3.27658 266.179 6.40502C281.36 12.2616 280.147 30.2193 264.347 35.7434ZM207.882 15.4208V25.9516C207.882 26.1151 207.967 26.2721 208.119 26.3894C208.272 26.5067 208.48 26.575 208.699 26.5798L231.062 26.5982C233.018 26.6014 234.955 26.4714 236.763 26.2159C238.571 25.9603 240.215 25.5841 241.599 25.1089C242.984 24.6336 244.083 24.0685 244.833 23.446C245.583 22.8234 245.969 22.1556 245.971 21.4807V19.9657C245.973 18.6044 244.41 17.2969 241.623 16.3304C238.837 15.3639 235.056 14.8175 231.111 14.8112L208.748 14.7927C208.636 14.7902 208.524 14.8046 208.419 14.8351C208.314 14.8656 208.218 14.9114 208.137 14.97C208.056 15.0286 207.992 15.0987 207.948 15.1761C207.904 15.2535 207.882 15.3368 207.882 15.4208Z" fill="#38B6FF"/>
<path d="M343.01 15.3501V55.105C343.01 55.2717 342.922 55.4315 342.763 55.5493C342.605 55.6672 342.391 55.7334 342.167 55.7334H313.456C313.233 55.7334 313.018 55.6672 312.86 55.5493C312.702 55.4315 312.613 55.2717 312.613 55.105L311.572 1.91361C311.572 1.74695 311.661 1.58711 311.819 1.46927C311.977 1.35142 312.191 1.2852 312.415 1.2852L370.705 1.26672C370.929 1.26672 371.143 1.33292 371.301 1.45077C371.459 1.56861 371.548 1.72845 371.548 1.89511L371.598 14.2226C371.598 14.3893 371.509 14.5491 371.351 14.667C371.193 14.7848 370.978 14.8511 370.755 14.8511L343.853 14.7217C343.63 14.7217 343.415 14.7879 343.257 14.9057C343.099 15.0236 343.01 15.1834 343.01 15.3501Z" fill="#38B6FF"/>
<path d="M469.814 35.7253C468.294 36.2303 468.303 36.7291 469.839 37.2217C479.525 40.3624 479.525 48.0109 481.73 54.6249C481.977 55.3639 481.589 55.7334 480.565 55.7334H454.405C453.925 55.7345 453.456 55.6272 453.062 55.4257C452.668 55.2243 452.367 54.9384 452.2 54.6065C448.732 47.9186 448.732 40.6211 435.999 40.2331C428.881 40.0114 421.746 39.9498 414.595 40.0484C413.769 40.0607 413.356 40.3809 413.356 41.009L413.331 54.4217C413.331 55.2962 412.753 55.7334 411.597 55.7334H384.124C383.1 55.7334 382.588 55.3454 382.588 54.5695L382.613 2.50778C382.613 2.1795 382.788 1.86464 383.099 1.63251C383.41 1.40037 383.833 1.26998 384.273 1.26998C397.865 1.31925 412.902 1.31925 429.384 1.26998C443.183 1.23303 470.086 1.34387 478.559 11.0431C485.693 19.2274 482.745 31.4946 469.814 35.7253ZM413.331 15.4216V25.9522C413.331 26.1156 413.417 26.2726 413.569 26.3899C413.722 26.5072 413.93 26.5755 414.149 26.5803L436.519 26.5988C438.475 26.6019 440.413 26.472 442.222 26.2164C444.031 25.9609 445.674 25.5847 447.059 25.1094C448.444 24.6342 449.544 24.0691 450.294 23.4466C451.044 22.824 451.431 22.1562 451.432 21.4813V19.9664C451.435 18.6051 449.871 17.2976 447.084 16.3311C444.297 15.3646 440.515 14.8182 436.568 14.8119L414.199 14.7934C414.086 14.791 413.974 14.8054 413.869 14.8359C413.764 14.8663 413.668 14.9122 413.587 14.9708C413.506 15.0293 413.442 15.0994 413.398 15.1769C413.354 15.2543 413.331 15.3375 413.331 15.4216Z" fill="#38B6FF"/>
<path d="M525.09 47.2103L518.841 55.4375C518.771 55.5283 518.67 55.6035 518.549 55.6554C518.427 55.7074 518.29 55.7343 518.15 55.7334L489.031 55.7149C488.892 55.7113 488.757 55.6804 488.639 55.6253C488.521 55.5701 488.425 55.4928 488.36 55.4009C488.295 55.3091 488.263 55.2059 488.268 55.102C488.273 54.9981 488.315 54.897 488.389 54.8089L533.931 1.56254C534 1.48054 534.095 1.41237 534.206 1.36402C534.318 1.31567 534.444 1.28863 534.574 1.28523L561.939 1.26672C562.072 1.26707 562.203 1.29268 562.32 1.34117C562.437 1.38966 562.535 1.45947 562.606 1.54407L608.198 54.8275C608.272 54.9155 608.314 55.0166 608.319 55.1205C608.324 55.2244 608.292 55.3275 608.227 55.4194C608.162 55.5112 608.066 55.5886 607.948 55.6438C607.83 55.6989 607.695 55.7298 607.556 55.7334H578.363C578.223 55.7343 578.085 55.7074 577.964 55.6554C577.842 55.6035 577.741 55.5283 577.671 55.4375L571.522 47.2103C571.452 47.1195 571.351 47.0443 571.229 46.9924C571.108 46.9404 570.97 46.9135 570.83 46.9145H525.781C525.641 46.9135 525.503 46.9404 525.382 46.9924C525.26 47.0443 525.16 47.1195 525.09 47.2103ZM536.352 32.4935C536.281 32.5811 536.243 32.6812 536.242 32.7834C536.241 32.8856 536.276 32.9862 536.344 33.0749C536.412 33.1635 536.51 33.2369 536.629 33.2875C536.748 33.3381 536.882 33.364 537.019 33.3625L559.519 33.381C559.651 33.3806 559.782 33.3542 559.897 33.3046C560.012 33.255 560.108 33.1838 560.176 33.098C560.243 33.0121 560.279 32.9147 560.281 32.8152C560.283 32.7157 560.25 32.6176 560.185 32.5305L548.973 17.7953C548.906 17.7068 548.809 17.6332 548.692 17.582C548.575 17.5308 548.441 17.5038 548.306 17.5038C548.17 17.5038 548.037 17.5308 547.92 17.582C547.802 17.6332 547.705 17.7068 547.639 17.7953L536.352 32.4935Z" fill="#38B6FF"/>
<path d="M758.739 25.7924L806.43 1.37761C806.561 1.30888 806.717 1.27032 806.877 1.26672L844.221 1.2852C844.395 1.28509 844.565 1.32632 844.705 1.40288C844.846 1.47944 844.95 1.58737 845.003 1.71098C845.055 1.83459 845.053 1.96747 844.998 2.09032C844.942 2.21316 844.835 2.31958 844.693 2.39413L795.364 27.4558C795.256 27.5121 795.168 27.5868 795.108 27.6737C795.047 27.7605 795.015 27.857 795.015 27.9548C795.015 28.0527 795.047 28.1492 795.108 28.236C795.168 28.3229 795.256 28.3976 795.364 28.4539L844.618 54.6245C844.761 54.699 844.867 54.8055 844.923 54.9283C844.979 55.0511 844.981 55.184 844.928 55.3076C844.876 55.4312 844.771 55.5392 844.631 55.6157C844.49 55.6923 844.321 55.7335 844.147 55.7334H807.001C806.821 55.7321 806.647 55.6866 806.505 55.604L775.935 37.8243C775.797 37.745 775.629 37.7004 775.455 37.6971C775.281 37.6938 775.11 37.7319 774.967 37.8058L757.771 46.6217C757.656 46.6777 757.561 46.7545 757.496 46.8449C757.431 46.9354 757.398 47.0366 757.399 47.1392L757.548 55.1235C757.548 55.2853 757.462 55.4404 757.308 55.5548C757.154 55.6691 756.946 55.7334 756.729 55.7334H727.499C727.282 55.7334 727.073 55.6691 726.92 55.5548C726.766 55.4404 726.68 55.2853 726.68 55.1235L726.705 1.89511C726.705 1.73335 726.791 1.57823 726.945 1.46385C727.098 1.34947 727.306 1.2852 727.524 1.2852L756.729 1.26672C756.946 1.26672 757.154 1.33097 757.308 1.44535C757.462 1.55973 757.548 1.71488 757.548 1.87664L757.449 25.2934C757.448 25.4052 757.49 25.5148 757.567 25.6103C757.645 25.7058 757.757 25.7836 757.89 25.8351C758.023 25.8865 758.173 25.9098 758.323 25.9023C758.472 25.8948 758.616 25.8568 758.739 25.7924Z" fill="#38B6FF"/>
<path d="M899.415 39.5136L879.291 55.53C879.213 55.594 879.117 55.6452 879.012 55.6802C878.906 55.7152 878.791 55.7333 878.675 55.7334L850.103 55.6964C849.938 55.6961 849.776 55.659 849.639 55.5899C849.502 55.5208 849.395 55.4227 849.331 55.308C849.268 55.1933 849.252 55.0671 849.284 54.9453C849.316 54.8235 849.395 54.7116 849.512 54.6237L885.178 28.3983C885.257 28.3384 885.32 28.2671 885.362 28.1885C885.404 28.11 885.425 28.0259 885.422 27.9413C885.42 27.8567 885.395 27.7733 885.349 27.6961C885.303 27.6189 885.236 27.5495 885.153 27.4921L849.561 2.46886C849.436 2.38209 849.349 2.26861 849.311 2.14359C849.274 2.01857 849.289 1.88797 849.353 1.7693C849.417 1.65063 849.528 1.54955 849.671 1.47956C849.814 1.40957 849.982 1.37403 850.153 1.37769L878.651 1.30372C878.873 1.30413 879.085 1.37063 879.242 1.48865L899.464 16.4323C899.621 16.5498 899.833 16.6157 900.055 16.6157C900.277 16.6157 900.489 16.5498 900.646 16.4323L920.72 1.45165C920.877 1.33363 921.09 1.26713 921.311 1.26672H949.883C950.052 1.26689 950.216 1.30518 950.355 1.37661C950.494 1.44805 950.602 1.5493 950.663 1.66715C950.724 1.78499 950.736 1.91394 950.698 2.03717C950.66 2.1604 950.574 2.27218 950.45 2.3579L914.76 27.4736C914.677 27.531 914.61 27.6004 914.564 27.6776C914.518 27.7548 914.493 27.8382 914.49 27.9228C914.488 28.0074 914.509 28.0915 914.551 28.17C914.593 28.2486 914.655 28.3199 914.735 28.3799L950.327 54.5497C950.444 54.6376 950.523 54.7496 950.555 54.8714C950.587 54.9931 950.571 55.1193 950.507 55.2341C950.444 55.3488 950.337 55.4469 950.2 55.516C950.063 55.5851 949.901 55.6221 949.736 55.6224L921.238 55.6964C921.122 55.6963 921.007 55.6782 920.901 55.6431C920.795 55.6081 920.7 55.557 920.622 55.493L900.646 39.5136C900.568 39.4497 900.472 39.3987 900.366 39.3639C900.261 39.329 900.146 39.311 900.03 39.311C899.915 39.311 899.8 39.329 899.694 39.3639C899.588 39.3987 899.493 39.4497 899.415 39.5136Z" fill="#38B6FF"/>
<path d="M847.143 13.0965C847.307 12.9749 847.413 12.8291 847.462 12.6588C847.725 11.7713 847.954 11.7774 848.151 12.6771C848.758 15.4856 849.332 18.3366 849.873 21.2303C849.913 21.4458 850.036 21.6481 850.229 21.812C850.422 21.9759 850.676 22.0943 850.958 22.1525C851.241 22.2107 851.541 22.2062 851.82 22.1396C852.099 22.0729 852.346 21.947 852.53 21.7774C854.153 20.3063 856.089 19.2667 858.335 18.6588C859.549 18.3184 859.738 18.5129 858.901 19.2424L855.777 21.9233C855.023 22.5798 855.064 23.206 855.9 23.8017C856.097 23.9476 856.195 24.13 856.195 24.3488C856.2 24.4693 856.169 24.5891 856.104 24.7003C856.039 24.8115 855.942 24.9117 855.819 24.9943C855.696 25.0769 855.55 25.1401 855.39 25.1797C855.23 25.2193 855.06 25.2345 854.892 25.2242C851.316 24.9446 848.446 25.6558 846.282 27.3579C845.658 27.8564 844.888 28.0692 843.969 27.9962C837.696 27.5221 831.743 28.8716 825.839 28.3974C822.166 28.1056 822.133 27.674 825.741 27.1026L841.312 24.6953C841.919 24.598 842.42 24.7379 842.813 25.1148C843.321 25.6011 843.977 25.9841 844.781 26.2637C844.932 26.3137 845.097 26.3361 845.262 26.3291C845.427 26.322 845.587 26.2857 845.73 26.2231C845.872 26.1606 845.992 26.0737 846.079 25.9697C846.167 25.8656 846.219 25.7476 846.232 25.6254C846.552 22.7804 846.872 20.0996 845.544 17.2728C844.789 15.7044 844.576 13.8321 844.904 11.6558C845.084 10.4765 845.306 10.4704 845.568 11.6376C845.65 12.0266 845.699 12.3853 845.716 12.7136C845.781 13.6984 846.257 13.826 847.143 13.0965Z" fill="#38B6FF"/>
<path d="M836.83 21.2412C834.95 20.5093 833.293 19.5 831.858 18.2134C831.298 17.7294 831.421 17.6113 832.229 17.8592C834.01 18.4022 835.733 19.0633 837.399 19.8424C838.108 20.1729 838.891 20.3794 839.748 20.4621C841.397 20.6155 842.313 21.3238 842.494 22.5868C842.576 23.2243 842.172 23.5017 841.282 23.4191C839.831 23.2892 838.784 22.8584 838.141 22.1265C837.811 21.7487 837.374 21.4536 836.83 21.2412Z" fill="#38B6FF"/>
<path d="M847.005 28.2316L869.131 27.2343C869.213 27.2286 869.296 27.2476 869.361 27.2876C869.426 27.3276 869.469 27.3854 869.482 27.4494L869.557 27.9187C869.564 27.9831 869.54 28.0473 869.489 28.0982C869.437 28.149 869.363 28.1828 869.281 28.1925L851.295 31.0279C851.252 31.0349 851.207 31.0351 851.164 31.0283C851.121 31.0216 851.08 31.0082 851.044 30.9888L846.855 28.6813C846.805 28.6507 846.768 28.6095 846.748 28.5628C846.728 28.5161 846.726 28.4659 846.742 28.4183C846.758 28.3707 846.791 28.3277 846.838 28.2945C846.885 28.2614 846.943 28.2395 847.005 28.2316Z" fill="#38B6FF"/>
<path d="M837.814 33.6698C837.947 33.0236 837.657 32.5611 836.945 32.2823C836.382 32.0669 836.224 31.7374 836.473 31.2939C836.605 31.0532 836.787 30.8441 837.019 30.6667C837.295 30.4552 837.633 30.2981 838.005 30.2087C838.377 30.1193 838.772 30.1004 839.156 30.1535C840.944 30.3942 842.667 30.1662 844.323 29.4692C845.962 28.7849 846.633 29.1461 846.335 30.5526C845.557 34.2401 846.153 37.4904 848.124 40.3035C848.753 41.2285 848.388 41.729 847.03 41.8051C846.815 41.8051 846.625 41.8748 846.459 42.0142C846.178 42.2422 845.995 42.5147 845.913 42.8315C845.747 43.4524 845.714 44.0606 845.813 44.6562C845.88 45.011 845.747 45.0617 845.416 44.8083C845.234 44.6689 845.126 44.5105 845.093 44.3331C844.513 41.1145 843.826 37.8642 843.031 34.5822C842.977 34.3477 842.835 34.1301 842.623 33.9556C842.411 33.7812 842.138 33.6574 841.836 33.5992C841.534 33.541 841.216 33.5507 840.922 33.6273C840.627 33.7039 840.367 33.8441 840.174 34.031C838.468 35.6276 836.224 36.8505 833.442 37.6995C832.167 38.0923 832.018 37.9149 832.995 37.1672C833.641 36.6604 834.295 36.1598 834.957 35.6656C834.891 34.804 835.396 34.4048 836.473 34.4682C836.783 34.4902 837.093 34.4203 837.342 34.2724C837.59 34.1245 837.759 33.9094 837.814 33.6698Z" fill="#38B6FF"/>
<path d="M850.604 31.6914C853.731 32.3379 856.273 33.7865 858.229 36.037C858.831 36.7333 858.63 36.9074 857.627 36.5592L849.952 33.8362C849.704 33.7449 849.504 33.5939 849.386 33.4077C849.267 33.2215 849.237 33.0111 849.3 32.8104L849.475 32.195C849.505 32.1051 849.558 32.0205 849.632 31.9462C849.705 31.8718 849.797 31.8093 849.903 31.7623C850.008 31.7153 850.124 31.6848 850.245 31.6726C850.365 31.6605 850.487 31.6668 850.604 31.6914Z" fill="#38B6FF"/>
</svg>
